<?xml version="1.0" encoding="UTF-8"?>
<!DOCTYPE svg PUBLIC "-//W3C//DTD SVG 1.1//EN" "http://www.w3.org/Graphics/SVG/1.1/DTD/svg11.dtd">
<svg xmlns="http://www.w3.org/2000/svg" version="1.1" width="61px" height="70px" style="shape-rendering:geometricPrecision; text-rendering:geometricPrecision; image-rendering:optimizeQuality; fill-rule:evenodd; clip-rule:evenodd" xmlns:xlink="http://www.w3.org/1999/xlink">
<g><path style="opacity:1" fill="#000000" d="M -0.5,-0.5 C 19.8333,-0.5 40.1667,-0.5 60.5,-0.5C 60.5,22.8333 60.5,46.1667 60.5,69.5C 40.1667,69.5 19.8333,69.5 -0.5,69.5C -0.5,46.1667 -0.5,22.8333 -0.5,-0.5 Z"/></g>
<g><path style="opacity:1" fill="#9132e9" d="M 34.5,5.5 C 41.0965,5.59674 44.5965,8.93007 45,15.5C 52.6037,21.7072 56.1037,29.7072 55.5,39.5C 54.5,39.5 53.5,39.5 52.5,39.5C 53.5942,31.1899 50.9275,24.3565 44.5,19C 42.0666,19.3607 39.5666,19.8607 37,20.5C 30.4353,19.7287 28.102,16.0621 30,9.5C 31.3968,7.92975 32.8968,6.59641 34.5,5.5 Z"/></g>
<g><path style="opacity:1" fill="#d7b1f5" d="M 34.5,8.5 C 40.0001,7.83142 42.1667,10.1647 41,15.5C 38.1418,19.3516 35.1418,19.3516 32,15.5C 31.3333,14.1667 31.3333,12.8333 32,11.5C 33.045,10.6266 33.8783,9.62656 34.5,8.5 Z"/></g>
<g><path style="opacity:1" fill="#8924e8" d="M 35.5,9.5 C 39.7069,9.69382 41.0402,11.6938 39.5,15.5C 33.3445,16.9463 32.0112,14.9463 35.5,9.5 Z"/></g>
<g><path style="opacity:1" fill="#9131e9" d="M 27.5,24.5 C 37.8284,24.326 42.3284,29.326 41,39.5C 38.4263,46.1479 33.593,48.6479 26.5,47C 20.0919,43.6772 17.9252,38.5105 20,31.5C 21.7424,28.2543 24.2424,25.921 27.5,24.5 Z"/></g>
<g><path style="opacity:1" fill="#f0e4fa" d="M 27.5,27.5 C 36.2071,27.0367 39.7071,31.0367 38,39.5C 35.5647,44.2238 31.7314,45.7238 26.5,44C 19.6707,38.0031 20.004,32.5031 27.5,27.5 Z"/></g>
<g><path style="opacity:1" fill="#8214e7" d="M 27.5,31.5 C 35.2193,30.8701 37.2193,33.8701 33.5,40.5C 25.4148,41.8601 23.4148,38.8601 27.5,31.5 Z"/></g>
<g><path style="opacity:1" fill="#902fe9" d="M 19.5,13.5 C 20.4972,13.4701 21.1639,13.9701 21.5,15C 14.871,18.9561 10.5377,24.6228 8.5,32C 8.66667,32.8333 8.83333,33.6667 9,34.5C 17.0896,38.5391 17.5896,43.3724 10.5,49C 2.21202,50.2913 -0.954644,46.7913 1,38.5C 2.01948,37.3128 3.18614,36.3128 4.5,35.5C 6.0474,25.7171 11.0474,18.3837 19.5,13.5 Z"/></g>
<g><path style="opacity:1" fill="#d5aff5" d="M 5.5,37.5 C 11.0001,36.8314 13.1667,39.1647 12,44.5C 6.33333,49.1667 3.33333,47.8333 3,40.5C 3.69794,39.3094 4.53128,38.3094 5.5,37.5 Z"/></g>
<g><path style="opacity:1" fill="#851be7" d="M 6.5,38.5 C 10.4735,39.0755 11.4735,41.2421 9.5,45C 6.43328,46.1642 4.76661,45.1642 4.5,42C 4.86179,40.5657 5.52846,39.3991 6.5,38.5 Z"/></g>
<g><path style="opacity:1" fill="#8e2be9" d="M 44.5,45.5 C 52.2008,45.3622 55.3674,49.0289 54,56.5C 50.5519,60.9912 46.3852,61.6578 41.5,58.5C 32.1162,63.1625 23.4495,62.1625 15.5,55.5C 16,55.1667 16.5,54.8333 17,54.5C 24.0918,58.7812 31.4252,59.4478 39,56.5C 38.7543,51.6572 40.5876,47.9906 44.5,45.5 Z"/></g>
<g><path style="opacity:1" fill="#dbbbf6" d="M 44.5,48.5 C 51.6095,47.9037 53.6095,50.7371 50.5,57C 42.749,58.0913 40.749,55.258 44.5,48.5 Z"/></g>
<g><path style="opacity:1" fill="#8822e7" d="M 45.5,49.5 C 50.3276,49.3852 51.6609,51.5519 49.5,56C 43.7377,56.4178 42.4044,54.2511 45.5,49.5 Z"/></g>
</svg> 